# xmcd
#
# Track frame offsets:
#	150
#	19006
#	33756
#	45309
#	57289
#	76835
#	93778
#	112104
#	132751
#	148677
#	164676
#	176781
#	188777
#	203358
#	217627
#	238573
#	255152
#	266939
#	279714
#	296734
#
# Disc length: 4117 seconds
#
# Revision: 0
# Processed by: cddbd v1.5.2PL0 Copyright (c) Steve Scherf et al.
# Submitted via: dBpowerAMP V4.0
#
DISCID=13101314
DTITLE=FRANCE EN FETE - CD1
DYEAR=2007
DGENRE=Undefined
TTITLE0=BEZU - La Queuleuleu
TTITLE1=LES MUSCLES - La fête au village
TTITLE2=ANNIE CORDY - Chokakao
TTITLE3=CHANTAL GOYA - Bécassine
TTITLE4=LA COMPAGNIE CREOLE - C'est bon pour le moral
TTITLE5=BORIS - Soirée Disco
TTITLE6=LICENCE IV - Viens boire un ptit coup à la maison
TTITLE7=CARLOS - Rosalie
TTITLE8=COCKTAIL PARADISE - Ca fait rire les oiseaux
TTITLE9=ULTRAZ BOYS - Il est vraiment phénoménal
TTITLE10=LES PAPAYES - Célimène
TTITLE11=LES FETARDS - Si tu vas à Rio
TTITLE12=ANTONIO LUIS DOS SANTOS - Brigitte Bardot
TTITLE13=BERNARD MENEZ - Salade de fruits
TTITLE14=MICHEL PRUVOT - La danse des canards
TTITLE15=LES DEBRANCHES - Le travail c'est la santé
TTITLE16=PATRICK TOPALOFF - J'ai bien mangé et j'ai bien bu
TTITLE17=LA BANDE A BASILE - Tata yoyo
TTITLE18=RICOUNE - La vache
TTITLE19=LES CHARLOTS - Ya dla joie
EXTD=
EXTT0=
EXTT1=
EXTT2=
EXTT3=
EXTT4=
EXTT5=
EXTT6=
EXTT7=
EXTT8=
EXTT9=
EXTT10=
EXTT11=
EXTT12=
EXTT13=
EXTT14=
EXTT15=
EXTT16=
EXTT17=
EXTT18=
EXTT19=
PLAYORDER=
